<svg width="800" height="800" xmlns="http://www.w3.org/2000/svg" preserveAspectRatio="xMidYMid meet">

 <g>
  <title>background</title>
  <rect fill="none" id="canvas_background" height="402" width="582" y="-1" x="-1"/>
 </g>
 <g>
  <title>Layer 1</title>
  <g id="svg_1" fill="#000000" transform="translate(0,800) scale(0.10000000149011612,-0.10000000149011612) ">
   <path stroke-width="0" id="svg_2" d="m3959,7967c-31,-18 -63,-37 -70,-43c-8,-6 -38,-23 -66,-36c-29,-14 -50,-28 -46,-31c3,-4 0,-7 -9,-7c-8,0 -32,-13 -54,-30c-21,-16 -47,-30 -56,-30c-10,0 -18,-3 -18,-7c0,-5 -21,-21 -48,-38c-56,-35 -58,-37 -97,-71c-29,-25 -30,-28 -30,-116c0,-68 4,-93 15,-101c8,-7 21,-30 29,-52c8,-22 17,-42 20,-45c12,-10 31,-50 31,-66c0,-9 9,-28 19,-43c11,-15 21,-34 23,-41c2,-8 9,-21 16,-28c6,-7 12,-20 12,-28c0,-8 5,-14 10,-14c6,0 10,-6 10,-13c0,-7 9,-23 20,-35c11,-12 20,-25 20,-29c0,-14 44,-96 62,-117c10,-11 20,-28 24,-38c3,-10 10,-16 15,-13c5,4 9,-3 9,-14c0,-12 3,-21 8,-21c9,0 32,-49 32,-69c0,-12 2,-13 8,-3c6,8 13,1 22,-23c8,-19 19,-35 24,-35c6,0 -2,-7 -18,-15c-15,-8 -36,-15 -45,-15c-14,0 -14,-2 -1,-10c10,-7 11,-10 2,-10c-18,0 -89,-49 -135,-91c-43,-41 -58,-45 -222,-59c-101,-8 -198,-20 -330,-39c-27,-3 -57,-11 -65,-16c-8,-5 -37,-13 -65,-17c-85,-12 -115,-20 -115,-29c0,-5 -8,-9 -17,-9c-22,0 -127,-42 -131,-52c-2,-5 -12,-8 -22,-8c-10,0 -22,-4 -25,-10c-3,-5 -22,-10 -41,-10c-19,0 -33,-4 -29,-9c5,-8 -25,-24 -132,-72c-18,-7 -33,-17 -33,-21c0,-5 -8,-8 -19,-8c-10,0 -32,-13 -49,-30c-18,-16 -36,-30 -42,-30c-5,0 -20,18 -32,40c-13,22 -30,40 -38,41c-10,0 -11,2 -3,6c9,3 7,11 -7,26c-11,11 -20,29 -20,39c0,11 -4,16 -10,13c-5,-3 -10,1 -10,9c0,9 -4,16 -10,16c-5,0 -10,9 -10,20c0,11 -4,20 -9,20c-4,0 -29,26 -54,58c-47,59 -77,94 -127,150c-17,18 -30,37 -30,43c0,6 -4,8 -9,5c-5,-3 -19,10 -32,29c-13,19 -27,35 -31,35c-5,0 -8,8 -8,17c0,9 -3,14 -6,10c-7,-6 -27,11 -132,111c-43,39 -80,72 -84,72c-5,0 -16,8 -26,18c-10,9 -36,31 -57,47c-21,17 -48,38 -59,47c-48,39 -83,64 -110,78c-16,8 -42,27 -57,43c-15,15 -35,27 -43,27c-9,0 -16,4 -16,8c0,5 -16,14 -35,22c-19,8 -35,18 -35,22c0,10 -90,53 -102,50c-5,-1 -8,5 -8,13c0,8 -9,15 -20,15c-11,0 -20,5 -20,10c0,6 -7,10 -15,10c-8,0 -15,4 -15,9c0,5 -15,14 -32,21c-81,30 -180,84 -172,93c4,4 -2,7 -14,7c-12,0 -36,9 -54,20c-18,11 -41,20 -50,20c-10,0 -18,4 -18,9c0,5 -10,13 -22,16c-42,13 -118,50 -118,57c0,5 -9,8 -20,8c-11,0 -20,5 -20,10c0,6 -13,10 -29,10c-17,0 -33,5 -36,10c-3,6 -19,10 -36,10c-16,0 -29,5 -29,10c0,6 -29,10 -66,10c-81,0 -120,-23 -130,-75c-3,-19 -11,-35 -16,-35c-6,0 -8,-32 -5,-77c3,-59 13,-103 41,-178c21,-55 40,-115 43,-132c3,-18 8,-33 12,-33c3,0 12,-15 19,-32c8,-18 22,-50 33,-71c10,-22 19,-45 19,-52c0,-15 52,-119 61,-123c4,-2 13,-23 20,-48c7,-24 17,-44 21,-44c4,0 8,-9 8,-20c0,-11 3,-20 8,-20c8,0 32,-49 32,-67c0,-7 5,-13 10,-13c6,0 10,-7 10,-15c0,-14 26,-63 40,-75c6,-5 30,-56 61,-127c8,-18 17,-33 21,-33c5,0 8,-7 8,-15c0,-8 9,-24 20,-35c11,-11 20,-27 20,-35c0,-8 16,-39 35,-69c19,-30 35,-60 35,-66c0,-5 5,-10 10,-10c6,0 10,-7 10,-15c0,-8 5,-15 10,-15c6,0 10,-11 10,-25c0,-14 4,-25 9,-25c5,0 31,-43 57,-95c27,-52 50,-92 53,-89c4,4 46,-77 43,-83c-1,-2 10,-14 23,-29c13,-14 27,-35 30,-45c4,-11 11,-19 16,-19c5,0 9,-6 9,-13c0,-11 55,-93 90,-134c5,-7 10,-15 10,-18c0,-4 6,-12 13,-19c6,-7 23,-27 37,-46c14,-18 37,-46 53,-61c15,-16 27,-31 27,-34c0,-3 9,-15 20,-27c11,-12 20,-28 20,-36c0,-19 -20,-54 -42,-73c-10,-9 -18,-19 -18,-23c0,-3 -9,-15 -20,-26c-11,-11 -20,-27 -20,-35c0,-8 -4,-15 -10,-15c-5,0 -10,-6 -10,-14c0,-7 -11,-22 -25,-32c-14,-10 -25,-24 -25,-31c0,-7 -4,-13 -10,-13c-5,0 -10,-6 -10,-12c0,-11 -16,-34 -62,-88c-7,-8 -12,-15 -10,-15c8,0 -19,-55 -27,-55c-5,0 -12,-11 -15,-24c-3,-14 -12,-31 -19,-38c-19,-21 -37,-56 -37,-73c0,-8 -4,-15 -10,-15c-5,0 -10,-9 -10,-19c0,-10 -7,-22 -16,-25c-8,-3 -12,-10 -9,-16c3,-5 1,-10 -4,-10c-6,0 -11,-6 -11,-14c0,-8 -4,-16 -9,-18c-5,-1 -20,-29 -35,-60c-14,-32 -30,-58 -36,-58c-5,0 -10,-9 -10,-19c0,-11 -5,-23 -10,-26c-6,-3 -10,-17 -10,-31c0,-13 -4,-24 -8,-24c-11,0 -32,-46 -32,-69c0,-11 -7,-21 -15,-25c-8,-3 -15,-15 -15,-26c0,-11 -4,-28 -9,-38c-5,-9 -15,-38 -23,-64c-7,-27 -16,-48 -20,-48c-4,0 -8,-13 -8,-30c0,-16 -4,-30 -8,-30c-11,0 -43,-112 -49,-176c-3,-30 -10,-57 -14,-60c-5,-3 -9,-27 -9,-54c0,-26 -5,-50 -11,-52c-11,-4 -23,-86 -35,-235c-4,-46 -11,-83 -15,-83c-5,0 -9,-76 -9,-170c0,-95 4,-170 9,-170c5,0 11,-24 14,-52c7,-76 23,-142 36,-146c6,-2 11,-19 11,-37c0,-19 4,-36 9,-39c5,-3 11,-20 14,-38c3,-18 10,-51 17,-73c7,-22 14,-55 17,-72c3,-18 9,-33 14,-33c5,0 9,-20 9,-45c0,-25 5,-45 10,-45c6,0 10,-5 10,-11c0,-37 43,-148 69,-176c16,-17 30,-30 32,-28c2,1 14,-17 25,-41l22,-44l-132,0c-141,0 -209,-7 -200,-21c3,-5 -15,-9 -39,-9c-27,0 -49,-6 -57,-15c-7,-9 -29,-15 -51,-15c-22,0 -39,-4 -39,-10c0,-5 -8,-10 -18,-10c-9,0 -34,-9 -54,-19c-19,-11 -39,-17 -42,-14c-3,4 -6,-1 -6,-10c0,-12 -8,-17 -26,-17c-24,0 -55,-19 -108,-66c-10,-9 -30,-20 -45,-23l-26,-7l-2,-130c-2,-115 0,-126 12,-99c7,16 12,45 10,64c-2,26 2,35 16,38c21,6 26,23 7,23c-9,0 -9,3 0,12c7,7 12,20 12,29c0,9 13,22 29,29c16,6 32,19 35,27c4,10 14,13 29,9c12,-3 29,-1 37,4c13,8 12,10 -2,10c-10,0 -18,5 -18,10c0,6 16,10 35,10c24,0 35,5 35,15c0,8 9,15 19,15c11,0 23,5 26,10c3,6 17,10 31,10c14,0 27,7 30,15c5,11 24,15 78,16c39,1 61,4 48,6c-31,6 -18,23 18,23c15,0 30,6 32,13c4,9 49,13 171,15c141,3 167,6 167,19c0,8 6,13 13,10c6,-2 11,-10 10,-16c-2,-6 6,-11 16,-11c24,0 36,-16 19,-23c-10,-4 -9,-6 1,-6c18,-1 52,-41 45,-52c-3,-5 3,-9 13,-10c16,0 16,-1 -2,-9c-11,-4 -29,-6 -41,-3c-12,2 -28,-3 -37,-11c-8,-9 -21,-16 -27,-16c-6,0 -13,-7 -16,-15c-4,-8 -12,-15 -19,-15c-22,0 -75,-31 -70,-41c4,-5 -5,-9 -20,-9c-14,0 -28,-7 -31,-15c-4,-8 -15,-15 -26,-15c-11,0 -32,-12 -47,-27c-64,-67 -123,-108 -135,-95c-4,3 -4,-1 -1,-10c4,-11 -1,-20 -17,-29c-13,-6 -27,-18 -31,-25c-4,-8 -15,-14 -22,-14c-8,0 -15,-9 -15,-20c0,-18 -36,-47 -52,-42c-4,1 -12,-14 -18,-34c-7,-19 -14,-33 -17,-30c-6,6 -71,-73 -79,-96c-4,-10 -10,-18 -15,-18c-5,0 -9,-7 -9,-15c0,-8 -4,-15 -10,-15c-5,0 -10,-8 -10,-19c0,-10 -7,-24 -15,-31c-8,-7 -15,-19 -15,-27c0,-8 -5,-11 -12,-7c-7,5 -9,2 -5,-9c4,-10 -3,-25 -18,-39c-14,-13 -25,-35 -25,-49c0,-23 -4,-26 -25,-21c-14,2 -25,11 -25,18c0,8 -4,14 -10,14c-5,0 -10,9 -10,21c0,15 -5,19 -15,15c-12,-4 -15,3 -15,37c0,23 -5,49 -10,57c-16,25 -13,-232 3,-264c8,-14 17,-23 20,-19c4,3 7,-8 7,-26c0,-18 -4,-30 -9,-27c-20,13 -24,-82 -28,-566l-3,-508l40,0c35,0 40,3 40,23c-1,12 -7,33 -15,47c-8,14 -15,43 -15,65c0,56 -10,90 -21,74c-4,-8 -8,61 -7,151c0,91 -2,171 -4,179c-1,7 3,16 10,18c6,3 12,-2 12,-11c0,-9 11,-18 24,-22c14,-3 27,-12 30,-21c3,-8 10,-11 16,-8c6,3 10,-4 10,-17c0,-13 12,-34 25,-47c14,-13 28,-34 31,-47c3,-13 12,-24 20,-24c8,0 14,-8 14,-17c0,-9 8,-25 17,-35c15,-17 15,-21 3,-30c-13,-8 -12,-9 2,-5c15,5 34,-17 30,-35c-1,-5 3,-8 9,-8c6,0 9,-7 5,-15c-3,-8 -1,-15 4,-15c6,0 10,-7 10,-15c0,-8 5,-15 10,-15c6,0 10,-7 10,-15c0,-8 9,-19 20,-25c11,-6 19,-14 18,-18c-2,-4 10,-20 25,-36c29,-31 35,-62 15,-68c-7,-3 30,-5 82,-5c52,-1 87,1 77,4c-9,2 -17,9 -17,14c0,5 -7,9 -16,9c-8,0 -12,5 -8,11c3,6 3,14 -2,18c-5,3 -30,33 -55,66c-49,64 -79,119 -79,143c0,9 -3,12 -6,9c-8,-7 -44,36 -44,52c0,6 -5,11 -10,11c-6,0 -10,6 -9,13c3,22 -1,40 -7,34c-8,-8 -54,59 -54,78c0,8 -6,15 -12,15c-9,0 -8,4 2,10c13,8 12,10 -4,10c-13,0 -16,5 -12,17c4,10 4,14 0,11c-3,-4 -18,4 -32,17c-23,21 -24,26 -11,41c12,16 12,17 -3,11c-19,-7 -51,18 -62,48c-5,14 -9,16 -15,7c-6,-10 -12,-4 -21,17c-7,17 -15,31 -19,31c-4,0 -6,19 -6,42c0,36 4,44 21,46c11,2 32,-8 48,-23c15,-14 29,-25 32,-25c3,0 29,-18 59,-40c30,-22 58,-40 63,-40c5,0 19,-11 32,-24c12,-14 34,-28 49,-31c15,-3 40,-17 55,-30c16,-14 37,-25 47,-25c13,0 16,-5 12,-17c-5,-12 -2,-15 9,-11c9,4 28,0 44,-9c16,-8 39,-17 52,-19c12,-3 31,-13 41,-23c11,-11 34,-22 52,-26c37,-7 100,-35 110,-48c3,-4 23,-10 45,-13c21,-3 41,-8 44,-13c3,-5 26,-11 52,-15c29,-4 49,-13 53,-24c5,-13 8,-14 14,-3c6,9 11,10 15,2c4,-6 16,-11 27,-11c10,0 19,-4 19,-10c0,-5 23,-10 50,-10c28,0 50,-4 50,-10c0,-5 -4,-10 -10,-10c-5,0 -7,-13 -3,-30c4,-23 2,-30 -9,-30c-10,0 -17,-13 -21,-33c-3,-18 -19,-62 -36,-98c-17,-36 -31,-71 -31,-77c0,-9 242,-12 961,-12l961,0l-5,138c-9,211 -16,268 -43,341c-13,36 -34,93 -45,125c-11,33 -34,89 -50,124c-16,36 -29,70 -29,76c-1,6 -9,29 -20,51c-11,22 -19,43 -20,48c0,4 -16,30 -35,57c-19,27 -35,53 -35,57c0,9 -45,53 -53,53c-3,0 -20,13 -37,28c-38,35 -114,77 -157,86c-17,4 -47,23 -66,41c-35,34 -36,35 -23,77c15,55 44,70 111,62c28,-3 60,-12 72,-20c12,-8 29,-14 37,-14c12,0 49,-25 155,-104c8,-6 39,-36 68,-66c71,-72 116,-150 170,-295c8,-22 23,-58 33,-80c30,-64 60,-143 60,-154c0,-6 8,-30 19,-54c37,-84 51,-133 52,-192c1,-33 8,-70 16,-82c7,-12 13,-39 13,-58c0,-20 5,-45 10,-56c7,-13 7,-19 0,-19c-6,0 -10,-31 -10,-79c0,-54 -4,-81 -12,-84c-7,-3 563,-6 1268,-6l1281,-1l7,77c3,42 6,145 6,229c0,84 4,164 10,178c5,15 13,62 16,107c4,46 15,96 26,117c10,20 18,45 18,57c0,11 18,56 40,100c22,44 40,86 40,93c0,6 4,12 9,12c5,0 12,12 15,26c12,47 58,108 159,211c114,117 144,131 196,93c35,-24 47,-57 36,-97c-3,-15 -48,-69 -102,-122c-63,-63 -104,-113 -122,-150c-15,-31 -32,-65 -38,-76c-43,-77 -90,-224 -98,-306c-4,-35 -10,-75 -15,-89c-5,-14 -10,-123 -12,-243l-3,-217l513,0c500,0 512,0 512,19c0,11 -4,23 -10,26c-5,3 -10,19 -10,35c0,16 -4,32 -10,35c-5,3 -10,19 -10,36c0,16 -3,29 -7,29c-11,0 -33,50 -33,76c0,12 -7,27 -15,34c-8,7 -15,22 -15,34c0,26 -41,126 -52,126c-4,0 -8,7 -8,15c0,24 -24,95 -32,95c-5,0 -8,12 -8,26c0,14 -4,23 -10,19c-5,-3 -10,3 -10,14c0,12 -4,21 -10,21c-5,0 -10,8 -10,18c0,10 -6,26 -14,37c-7,11 -19,37 -25,58c-7,20 -16,35 -20,32c-5,-2 -14,14 -21,35c-7,22 -19,45 -27,51c-7,6 -13,17 -13,24c0,7 -7,18 -15,25c-8,7 -15,20 -15,30c0,10 -6,20 -14,23c-8,3 -19,22 -26,41c-6,20 -16,34 -21,31c-5,-4 -9,5 -9,18c0,14 -6,27 -14,30c-13,5 -23,20 -58,87c-7,13 -26,39 -43,57c-50,54 -55,61 -55,83c0,14 7,20 21,20c11,0 17,5 14,10c-3,6 5,10 19,10c19,0 24,4 19,15c-3,9 -2,15 3,13c18,-4 54,14 54,28c0,8 6,14 13,14c7,0 26,14 42,30c16,17 35,30 42,30c7,0 13,5 13,10c0,6 7,10 15,10c8,0 15,6 15,13c0,8 11,20 25,27c14,7 25,17 25,22c0,4 7,8 15,8c8,0 15,5 15,11c0,5 14,15 31,21c23,8 27,13 17,19c-10,7 -9,9 3,9c9,0 27,11 40,25c13,13 29,25 35,25c14,0 144,125 144,139c0,6 6,11 13,11c6,0 28,23 47,51c19,28 44,61 55,74c44,51 55,65 55,70c0,5 27,39 53,67c9,10 17,22 17,27c0,6 9,26 21,45c12,20 17,36 12,36c-4,0 0,5 10,11c9,5 17,19 17,29c0,11 5,20 10,20c6,0 10,9 10,21c0,11 4,18 9,15c10,-6 31,37 31,64c0,11 4,20 10,20c5,0 13,12 16,27c4,16 10,33 13,38c4,6 17,37 30,70c12,33 27,68 32,77c5,10 9,32 9,48c0,17 4,29 8,26c9,-6 32,80 32,119c0,13 5,27 10,30c6,3 10,35 10,71c0,35 4,64 8,64c5,0 17,48 27,108c10,59 22,111 26,117c11,11 12,419 2,429c-11,11 -32,114 -32,161c-1,22 -4,51 -8,64c-6,23 -7,23 -14,5c-4,-11 -8,19 -8,72c-1,50 -5,104 -10,120c-5,16 -15,75 -22,132c-7,61 -16,98 -21,90c-4,-8 -8,6 -8,34c0,26 -4,50 -10,53c-5,3 -10,21 -10,39c0,19 -7,47 -15,62c-8,16 -18,45 -21,64c-4,19 -17,49 -29,65c-13,17 -28,56 -35,88c-6,31 -15,57 -19,57c-3,0 -13,21 -20,48c-8,26 -19,50 -24,54c-6,3 -12,15 -13,25c-2,11 -10,33 -19,49c-8,16 -15,37 -15,46c0,9 -5,20 -10,23c-6,4 -18,24 -27,46c-8,21 -19,39 -24,39c-5,0 -9,7 -9,15c0,18 -34,80 -60,107c-11,12 -17,25 -14,29c2,4 -4,14 -14,21c-11,7 -19,16 -18,20c0,3 -14,23 -31,43c-18,20 -33,39 -33,41c0,3 -10,16 -22,30c-13,14 -32,35 -43,48c-11,12 -31,39 -45,59c-14,20 -28,37 -32,37c-5,0 -8,7 -8,16c0,8 -4,12 -10,9c-5,-3 -10,-1 -10,4c0,6 5,11 10,11c6,0 10,6 10,14c0,8 3,16 8,18c4,2 19,21 35,44c15,22 36,50 47,62c11,12 20,26 20,32c0,5 4,10 8,10c5,0 15,12 23,28c8,15 22,35 33,45c10,9 16,17 12,17c-4,0 0,7 8,16c9,8 16,21 16,27c0,7 11,25 25,40c14,15 24,27 21,27c-3,0 6,16 19,36c14,20 25,44 25,53c0,14 2,14 10,1c7,-11 10,-7 10,19c0,19 3,31 7,28c3,-4 14,11 24,33c10,22 23,40 29,40c5,0 10,9 10,20c0,11 4,20 9,20c5,0 11,13 14,29c3,16 12,35 19,42c7,8 19,26 27,42c8,15 18,27 23,27c4,0 8,9 8,21c0,11 7,27 15,36c8,8 13,19 10,24c-4,5 1,9 9,9c9,0 16,9 16,20c0,11 5,20 10,20c6,0 10,8 10,18c0,10 9,28 20,40c11,12 20,27 20,33c0,7 11,27 25,45c14,18 25,38 25,44c0,11 17,48 41,90c5,8 17,31 27,50c9,19 20,37 25,38c4,2 7,10 7,18c0,8 4,22 9,32c5,9 15,31 22,49c7,17 17,29 21,27c4,-3 8,6 8,20c0,14 5,28 10,31c6,3 10,14 10,25c0,10 7,20 15,24c8,3 15,12 15,20c0,24 22,66 31,60c5,-3 9,6 9,21c0,14 4,34 10,45c6,11 15,29 20,40c6,11 10,27 10,35c0,8 4,15 8,15c4,0 14,21 21,48c8,26 18,52 23,59c5,6 18,49 29,95c32,127 15,298 -29,298c-8,0 -12,6 -8,15c4,13 -8,15 -74,15c-43,0 -81,-4 -84,-9c-3,-4 -39,-20 -81,-36c-41,-15 -78,-31 -81,-36c-3,-5 -14,-9 -25,-9c-10,0 -19,-4 -19,-10c0,-5 -11,-10 -25,-10c-14,0 -25,-3 -25,-8c0,-4 -15,-13 -32,-20c-18,-7 -41,-18 -50,-23c-10,-5 -28,-9 -40,-9c-12,0 -18,-3 -15,-7c8,-7 -38,-33 -59,-33c-8,0 -14,-7 -14,-15c0,-8 -9,-15 -19,-15c-11,0 -23,-4 -26,-10c-3,-5 -21,-10 -38,-11c-27,0 -29,-2 -12,-9c17,-7 17,-9 3,-9c-10,-1 -39,-13 -65,-28c-26,-14 -64,-35 -83,-46c-19,-11 -37,-22 -40,-26c-10,-12 -50,-31 -65,-31c-9,0 -13,-4 -10,-10c3,-5 -1,-10 -9,-10c-14,0 -37,-15 -71,-47c-7,-6 -32,-21 -57,-33c-25,-11 -62,-36 -83,-55c-21,-19 -41,-35 -45,-35c-4,0 -21,-13 -38,-29c-17,-17 -48,-41 -69,-54c-21,-14 -49,-35 -63,-48c-13,-13 -28,-23 -32,-21c-5,1 -8,-2 -8,-8c0,-5 -12,-16 -27,-24c-16,-8 -24,-15 -20,-16c12,0 -75,-80 -88,-80c-5,0 -16,-14 -23,-30c-8,-17 -17,-28 -22,-25c-9,6 -50,-47 -50,-64c0,-6 -6,-11 -14,-11c-8,0 -21,-9 -29,-20c-8,-11 -17,-17 -20,-13c-4,3 -7,1 -7,-6c0,-6 -10,-22 -22,-35c-13,-13 -36,-40 -53,-61c-16,-20 -43,-52 -60,-69c-16,-18 -31,-38 -33,-45c-1,-7 -9,-20 -17,-28c-9,-8 -13,-18 -10,-23c3,-5 -4,-11 -15,-15c-18,-6 -24,-17 -21,-37c0,-5 -5,-8 -11,-8c-7,0 -24,-24 -38,-53c-35,-74 -37,-76 -84,-59c-23,7 -45,18 -51,23c-5,5 -25,9 -44,9c-34,0 -89,14 -123,31c-10,5 -27,9 -37,9c-11,0 -23,5 -26,10c-3,6 -19,10 -36,10c-16,0 -29,5 -29,10c0,6 -14,10 -30,10c-17,0 -38,4 -48,10c-9,5 -52,17 -94,26c-43,9 -76,20 -73,24c3,4 -37,10 -88,13c-50,4 -135,11 -187,16c-52,6 -141,14 -197,17c-57,4 -103,9 -103,12c0,7 62,62 71,62c4,0 20,11 34,24c34,31 42,84 21,127c-9,17 -16,38 -16,46c0,7 -7,16 -15,19c-8,4 -15,17 -15,30c0,13 -4,24 -10,24c-5,0 -10,11 -10,25c0,14 -4,25 -10,25c-5,0 -10,7 -10,15c0,8 -4,15 -10,15c-5,0 -10,5 -10,10c0,6 7,10 15,10c9,0 18,7 21,15c4,8 12,15 20,15c8,0 14,5 14,10c0,6 11,10 25,10c14,0 25,4 25,8c0,5 16,14 35,22c19,8 35,17 35,22c0,4 9,8 21,8c11,0 18,4 14,10c-3,5 13,14 35,20c22,6 40,15 40,20c0,6 9,10 20,10c10,0 23,6 27,13c8,12 83,52 95,49c3,-1 12,5 18,13c7,8 23,15 37,15c13,0 22,4 19,9c-4,5 13,16 36,23c23,8 50,25 60,39c22,29 27,112 10,184c-6,28 -14,64 -17,80c-4,17 -15,48 -25,70c-11,22 -22,53 -25,68c-3,15 -10,25 -15,22c-6,-3 -10,5 -10,19c0,14 -4,28 -10,31c-5,3 -10,15 -10,26c0,11 -4,17 -10,14c-5,-3 -10,1 -10,9c0,19 -40,106 -57,124c-6,6 -15,21 -18,32c-6,18 -15,20 -106,20c-92,0 -99,-1 -99,-20c0,-11 3,-20 8,-20c4,0 18,-24 32,-53c14,-28 31,-56 38,-60c6,-4 12,-14 12,-21c0,-18 24,-66 33,-66c4,0 7,-7 7,-15c0,-8 4,-15 8,-15c5,0 15,-19 22,-42c7,-24 16,-52 20,-63c5,-11 14,-38 20,-60c7,-22 18,-53 26,-68c33,-66 15,-98 -71,-128c-22,-8 -49,-22 -59,-31c-11,-10 -28,-18 -38,-18c-10,0 -18,-4 -18,-9c0,-5 -29,-21 -65,-36c-36,-16 -65,-32 -65,-36c0,-4 -16,-13 -35,-20c-19,-7 -35,-16 -35,-20c0,-4 -11,-10 -25,-13c-14,-4 -34,-14 -43,-24c-10,-9 -36,-26 -57,-37c-59,-30 -124,-98 -127,-132c-4,-58 3,-79 37,-116c19,-21 35,-45 35,-53c0,-8 5,-14 10,-14c6,0 10,-11 10,-25c0,-14 5,-25 10,-25c17,0 11,-50 -7,-57c-9,-4 -30,-19 -47,-35c-16,-15 -32,-28 -37,-28c-9,0 -53,-36 -82,-67c-18,-21 -30,-23 -109,-23c-48,0 -88,3 -88,6c0,11 29,34 44,34c19,0 76,57 77,78c4,67 -26,162 -51,162c-6,0 -10,9 -10,20c0,11 -4,20 -10,20c-5,0 -10,7 -10,16c0,8 -4,13 -8,10c-5,-3 -15,10 -22,29c-8,19 -17,35 -21,35c-4,0 -20,21 -35,48c-15,26 -30,49 -33,52c-3,3 -13,19 -21,35c-8,17 -17,32 -20,35c-14,14 -39,68 -33,74c3,3 1,6 -5,6c-7,0 -12,9 -12,20c0,11 -9,30 -20,43c-41,45 -46,53 -60,97c-8,25 -18,48 -23,51c-4,3 -9,15 -10,27c0,11 -5,18 -9,16c-4,-3 -8,4 -8,15c0,12 -5,21 -11,21c-6,0 -9,16 -7,37c2,28 9,41 27,49c13,7 26,16 30,21c3,4 18,14 33,22c15,8 36,21 46,30c27,23 60,41 77,41c8,0 15,4 15,8c0,5 21,20 48,33c26,13 51,29 55,36c4,7 17,13 27,13c11,0 29,9 40,20c11,11 26,20 34,20c8,0 16,3 18,8c2,4 26,18 53,31c28,13 58,27 67,32c10,5 25,9 33,9c8,0 15,6 15,13c0,8 22,19 50,27c27,7 47,17 44,22c-3,4 4,8 15,8c11,0 23,5 26,10c4,7 -62,10 -192,9l-198,-1l-56,-31zm3214,-765c-3,-86 -10,-162 -15,-169c-5,-7 -14,-54 -18,-105c-14,-141 -38,-282 -50,-286c-5,-2 -10,-19 -10,-38c0,-39 -21,-114 -32,-114c-5,0 -8,-7 -8,-15c0,-14 -36,-85 -49,-95c-3,-3 -19,-32 -36,-65c-16,-33 -33,-61 -37,-63c-5,-2 -8,-12 -8,-23c0,-10 -4,-19 -10,-19c-5,0 -10,-7 -10,-15c0,-8 -3,-15 -7,-15c-10,0 -33,-49 -33,-68c0,-7 -4,-10 -10,-7c-5,3 -10,-1 -10,-9c0,-9 -4,-16 -10,-16c-5,0 -10,-7 -10,-15c0,-9 -7,-18 -15,-21c-8,-4 -15,-12 -15,-19c0,-18 -40,-86 -62,-106c-10,-9 -18,-24 -18,-33c0,-9 -7,-16 -16,-16c-8,0 -13,-4 -10,-8c3,-5 -4,-18 -14,-30c-11,-12 -20,-24 -20,-28c0,-4 -7,-14 -15,-23c-43,-48 -52,-59 -58,-74c-9,-24 -26,-21 -49,8c-11,14 -26,25 -34,25c-8,0 -26,11 -39,24c-13,14 -34,27 -45,31c-11,3 -20,13 -20,21c0,8 -6,14 -14,14c-8,0 -29,13 -47,29c-18,17 -45,35 -61,42c-15,6 -25,15 -22,20c3,5 -2,9 -10,9c-9,0 -21,9 -28,20c-7,11 -18,20 -25,20c-7,0 -13,4 -13,9c0,5 -11,12 -25,15c-14,4 -25,11 -25,16c0,6 -7,10 -15,10c-8,0 -15,5 -15,10c0,6 -7,10 -15,10c-8,0 -15,5 -15,10c0,6 -7,10 -15,10c-8,0 -15,5 -15,10c0,6 -9,10 -20,10c-11,0 -20,5 -20,10c0,6 -10,10 -22,10c-12,0 -18,3 -15,7c8,8 -62,52 -83,53c-19,0 -43,37 -30,45c6,3 10,15 10,26c0,10 3,19 8,19c4,0 18,20 32,45c14,25 28,45 32,45c4,0 15,16 24,35c9,19 20,35 25,35c5,0 14,11 21,24c16,29 61,86 108,136c90,97 120,131 120,140c0,6 3,9 8,8c4,-2 28,19 55,45c26,26 49,47 52,47c3,0 28,22 55,49c28,27 63,55 78,62c15,6 39,27 52,45c14,17 28,30 31,28c4,-2 12,3 19,11c7,8 19,15 26,15c8,0 14,5 14,10c0,6 6,10 13,10c6,0 26,13 42,28c17,15 51,40 78,55c26,15 47,31 47,35c0,4 25,18 55,32c30,14 55,28 55,33c0,4 7,7 15,7c8,0 15,4 15,9c0,5 27,20 60,33c33,12 60,29 60,35c0,7 9,13 20,13c11,0 20,5 20,10c0,6 9,10 21,10c11,0 18,4 14,9c-6,10 32,19 52,13c8,-2 10,-46 6,-160zm-6191,-42c14,-10 28,-16 32,-13c3,3 6,2 6,-4c0,-5 18,-18 40,-28c22,-10 40,-22 40,-27c0,-4 9,-8 20,-8c11,0 20,-4 20,-10c0,-5 7,-10 16,-10c8,0 12,-4 9,-10c-3,-5 3,-10 14,-10c12,0 21,-4 21,-10c0,-5 6,-10 14,-10c19,0 67,-26 60,-33c-3,-3 5,-11 18,-18c12,-6 27,-18 31,-25c4,-8 15,-14 22,-14c8,0 15,-4 15,-10c0,-5 5,-10 10,-10c12,0 73,-41 78,-52c2,-5 7,-8 12,-8c8,0 32,-19 92,-72c16,-16 34,-28 39,-28c5,0 9,-5 9,-11c0,-12 25,-39 37,-39c4,0 21,-14 37,-30c16,-17 33,-30 38,-30c4,0 8,-6 8,-13c0,-8 11,-20 25,-27c14,-7 25,-20 25,-28c0,-9 3,-13 6,-9c6,6 34,-16 34,-28c0,-3 11,-16 25,-29c14,-13 25,-28 25,-34c0,-6 9,-14 20,-17c11,-3 20,-11 20,-17c0,-5 14,-23 30,-38c17,-15 30,-32 30,-37c0,-4 18,-28 39,-52c22,-25 38,-48 36,-51c-2,-4 5,-13 16,-20c10,-8 19,-20 19,-27c0,-7 4,-13 9,-13c5,0 14,-13 21,-30c7,-16 16,-30 21,-30c5,0 9,-7 9,-15c0,-9 9,-25 20,-37c11,-12 20,-27 20,-34c0,-14 -81,-74 -100,-74c-6,0 -13,-7 -16,-15c-4,-8 -12,-15 -20,-15c-8,0 -14,-4 -14,-10c0,-5 -4,-10 -10,-10c-9,0 -35,-19 -65,-47c-8,-7 -16,-13 -19,-13c-6,0 -10,-3 -86,-70c-25,-22 -48,-40 -52,-40c-3,0 -70,-62 -147,-139l-142,-138l-34,34c-19,19 -35,37 -35,39c0,7 -42,64 -72,98c-26,28 -29,34 -28,52c1,3 -9,14 -22,24c-13,11 -19,19 -15,20c4,0 -2,10 -13,23c-11,12 -41,54 -65,92c-24,39 -48,75 -53,80c-4,6 -15,25 -22,43c-8,17 -18,32 -21,32c-3,0 -17,25 -30,55c-13,30 -26,55 -30,55c-3,0 -14,18 -24,40c-10,22 -22,40 -27,40c-4,0 -8,9 -8,20c0,11 -4,20 -10,20c-5,0 -10,9 -10,20c0,11 -4,20 -10,20c-5,0 -10,9 -10,20c0,11 -3,20 -7,20c-28,0 -33,63 -33,388c0,312 10,462 30,462c4,0 19,-9 32,-20zm3498,-844c333,-30 450,-45 450,-57c0,-4 37,-10 83,-13c83,-5 201,-21 182,-25c-5,-2 22,-11 60,-21c39,-10 84,-23 100,-28c17,-6 55,-18 85,-28c56,-17 111,-38 142,-55c10,-5 27,-9 38,-9c11,0 20,-4 20,-10c0,-5 6,-10 13,-10c6,-1 37,-14 67,-30c30,-16 70,-36 88,-45c17,-8 32,-20 32,-25c0,-6 9,-10 20,-10c11,0 20,-4 20,-10c0,-5 7,-10 15,-10c8,0 15,-4 15,-9c0,-5 8,-11 18,-14c25,-8 76,-40 84,-53c4,-6 21,-17 38,-24c16,-7 28,-15 26,-19c-3,-4 8,-12 23,-19c15,-7 37,-21 49,-32c12,-11 24,-20 28,-20c4,0 14,-8 23,-18c9,-9 39,-35 66,-56c62,-49 79,-64 132,-118c103,-104 173,-184 173,-196c0,-7 5,-10 10,-7c6,3 10,-1 10,-9c0,-8 10,-23 23,-33c12,-10 33,-35 46,-55c12,-21 27,-38 32,-38c5,0 9,-6 9,-13c0,-7 10,-24 23,-37c47,-51 147,-207 147,-231c0,-11 4,-18 9,-15c8,5 39,-75 33,-83c-2,-2 0,-7 5,-10c5,-3 19,-28 32,-56c12,-27 29,-63 36,-78c8,-16 15,-35 15,-43c0,-8 4,-22 9,-32c5,-9 15,-38 23,-64c7,-27 16,-48 20,-48c4,0 8,-6 8,-13c0,-7 11,-35 25,-63c22,-44 30,-81 54,-246c4,-25 12,-52 18,-60c6,-7 14,-40 18,-73c4,-33 11,-87 15,-120c4,-33 8,-55 10,-50c2,6 7,-28 12,-75c4,-47 10,-114 14,-150c3,-36 11,-68 18,-72c15,-10 14,-256 -2,-283c-10,-18 -11,-16 -7,12c4,34 -11,55 -21,29c-3,-8 -12,-12 -20,-9c-17,6 -64,-4 -64,-15c0,-15 58,-30 69,-19c12,12 12,11 16,-51c2,-23 -1,-40 -6,-36c-5,3 -9,-5 -9,-17c0,-38 -14,-11 -20,39c-4,41 -8,47 -30,51c-14,1 -28,8 -32,15c-6,8 -8,7 -8,-3c0,-7 -6,-11 -15,-7c-9,3 -15,0 -15,-9c0,-8 -4,-15 -9,-15c-20,0 -41,-32 -36,-53c3,-13 -3,-34 -15,-52c-17,-25 -20,-27 -20,-10c-1,28 -40,-52 -40,-81c0,-12 -9,-41 -20,-65c-11,-24 -20,-57 -20,-72c0,-16 -4,-26 -9,-23c-10,7 -36,-357 -28,-405c15,-98 18,-113 21,-116c6,-7 52,-6 74,1c13,5 22,3 22,-3c0,-6 -9,-11 -20,-11c-16,0 -20,-7 -21,-32c-1,-18 -1,-38 0,-44c1,-7 -5,-14 -14,-18c-8,-3 -15,-12 -15,-21c0,-9 -9,-25 -20,-37c-11,-12 -20,-28 -20,-37c0,-8 -3,-12 -6,-8c-7,6 -34,-17 -34,-28c0,-4 -15,-22 -33,-41c-41,-43 -49,-53 -66,-86c-8,-15 -18,-25 -23,-22c-4,3 -8,1 -8,-4c0,-15 -121,-132 -152,-148c-16,-8 -41,-28 -57,-44c-15,-17 -31,-30 -35,-30c-3,0 -25,-18 -47,-40c-23,-22 -48,-40 -55,-40c-8,0 -14,-6 -14,-14c0,-8 -13,-20 -29,-27c-16,-7 -27,-17 -25,-21c3,-4 -1,-8 -9,-8c-8,0 -18,-7 -21,-16c-3,-8 -10,-13 -14,-10c-5,3 -15,-4 -22,-15c-8,-10 -20,-19 -27,-19c-16,0 -55,-21 -65,-34c-3,-6 -43,-22 -87,-36c-45,-15 -78,-30 -74,-33c3,-4 -10,-7 -30,-7c-20,0 -37,-4 -37,-10c0,-5 -13,-10 -30,-10c-16,0 -30,-4 -30,-9c0,-10 -41,-18 -135,-27c-33,-4 -66,-11 -73,-17c-18,-15 -32,-15 -452,-28c-290,-9 -439,-9 -605,0c-121,6 -384,12 -585,12c-201,1 -396,6 -435,11c-102,13 -368,27 -627,34c-130,3 -225,10 -222,15c3,5 -30,9 -75,9c-44,0 -82,4 -85,9c-3,5 -23,11 -43,14c-64,9 -197,39 -215,48c-10,5 -29,9 -42,9c-14,0 -31,7 -40,15c-8,8 -24,15 -35,15c-11,0 -23,4 -26,10c-3,5 -17,10 -31,10c-13,0 -24,5 -24,10c0,6 -9,10 -19,10c-11,0 -23,5 -26,10c-3,5 -15,10 -26,10c-10,0 -19,5 -19,10c0,6 -6,10 -13,10c-7,0 -32,9 -55,20c-22,11 -48,20 -56,20c-8,0 -17,4 -20,8c-3,5 -38,21 -78,37c-40,15 -75,31 -78,34c-3,3 -18,13 -35,21c-16,8 -39,23 -49,33c-11,9 -26,17 -33,17c-8,0 -16,7 -19,15c-4,8 -13,15 -20,15c-15,0 -27,8 -65,43c-10,9 -25,17 -32,17c-7,0 -19,9 -27,20c-8,11 -18,20 -22,20c-14,0 -94,75 -221,208c-17,17 -35,32 -39,32c-4,0 -8,6 -8,14c0,7 -13,26 -28,43c-33,34 -128,168 -113,159c5,-4 12,-2 16,4c3,5 0,10 -8,10c-17,0 -39,24 -31,33c4,3 16,0 27,-8c12,-8 25,-11 31,-6c17,13 106,22 106,11c0,-6 -12,-11 -27,-11c-20,-1 -22,-3 -9,-6c10,-3 48,-2 83,2c52,5 62,9 53,20c-9,10 -7,14 7,18c10,2 6,4 -8,3c-19,-2 -25,2 -22,11c3,7 11,13 19,13c8,0 14,5 14,11c0,7 12,9 35,5c28,-6 34,-4 29,8c-4,9 2,16 18,19c17,3 15,5 -10,6c-32,1 -33,2 -30,45c2,24 6,42 11,39c4,-2 7,1 7,6c0,6 6,11 13,11c7,0 24,8 37,17c14,10 34,17 45,16c16,-1 16,-1 3,3c-19,6 -24,39 -8,49c6,3 15,26 21,49c14,55 41,58 50,6c4,-19 7,45 7,142c0,124 -4,189 -14,215c-7,21 -13,54 -12,73l1,35l6,-35l7,-35l7,35c5,21 4,36 -3,38c-5,2 -10,11 -10,19c0,13 -3,13 -15,3c-12,-10 -15,-9 -15,4c0,13 -6,16 -22,11c-19,-5 -20,-4 -8,5c10,8 11,13 4,16c-6,3 -9,16 -6,29c2,15 0,25 -7,25c-6,0 -11,-6 -12,-12c0,-10 -2,-10 -6,0c-4,10 -8,9 -19,-5c-12,-17 -13,-17 -14,-1c0,11 -5,15 -15,12c-16,-7 -20,-30 -7,-36c5,-1 12,-15 16,-30c5,-21 3,-28 -9,-28c-8,0 -15,-4 -15,-10c0,-5 9,-10 20,-10c11,0 20,-4 20,-10c0,-5 -18,-10 -40,-10l-40,0l0,49c0,34 4,51 15,55c20,7 19,26 -5,56c-25,32 -25,43 0,30c11,-6 17,-16 14,-25c-5,-12 3,-15 37,-14l44,1l-35,12c-34,13 -34,14 -10,18c25,5 25,5 -2,7c-31,1 -38,17 -10,24c14,4 14,5 -3,6c-25,2 -68,37 -61,50c4,5 -3,7 -16,3c-14,-3 -19,-2 -14,6c7,12 -11,17 -42,13c-8,-1 -26,6 -40,16c-15,9 -30,16 -35,15c-4,-1 -16,7 -27,18c-14,14 -33,20 -68,20c-26,0 -63,4 -82,10c-24,7 -50,6 -87,-2c-49,-12 -52,-14 -56,-48c-2,-19 -4,9 -5,63c-1,63 2,96 8,92c6,-4 10,12 10,41c0,65 21,176 37,192c7,7 13,24 13,36c0,13 7,40 15,59c8,20 15,47 15,61c0,13 7,31 15,40c8,8 15,26 15,40c0,14 5,26 10,26c6,0 10,11 10,25c0,14 3,25 8,25c11,0 32,51 32,76c0,13 5,26 10,29c6,3 10,15 10,26c0,11 4,18 9,15c4,-3 16,12 26,34c10,22 22,40 27,40c4,0 8,9 8,20c0,11 5,20 11,20c5,0 8,4 5,8c-3,5 6,25 19,44c13,20 35,61 49,91c13,30 32,64 43,74c10,10 28,40 41,66c12,27 27,54 32,60c35,43 58,77 75,110c11,20 23,37 27,37c4,0 15,15 24,32c9,18 29,44 44,58c14,14 35,41 46,60c10,19 31,46 47,60c15,13 27,30 27,38c0,7 4,10 10,7c5,-3 10,1 10,9c0,9 4,16 8,16c5,0 14,12 21,26c6,15 14,24 18,21c3,-4 19,13 36,36c17,23 42,53 57,67c14,14 29,33 33,43c3,9 13,17 22,17c8,0 15,4 15,8c0,14 141,156 180,182c19,13 42,31 51,39c27,27 53,45 82,60c15,8 27,18 27,23c0,4 7,8 15,8c8,0 15,5 15,11c0,5 14,15 30,20c17,6 30,17 30,25c0,8 9,14 20,14c11,0 20,4 20,8c0,5 16,14 35,22c20,8 43,22 52,32c9,10 25,18 35,18c11,0 17,4 14,8c-4,7 20,20 67,36c10,3 15,10 12,16c-4,6 5,10 19,10c14,0 26,5 26,10c0,6 9,10 20,10c11,0 20,5 20,10c0,6 7,10 15,10c8,0 15,4 15,9c0,5 10,11 23,15c13,3 36,16 51,29c16,14 47,30 70,38c22,7 50,18 61,25c11,7 40,18 65,25c25,7 49,16 54,21c6,4 25,8 42,8c18,0 36,5 39,10c3,6 24,10 45,10c21,0 41,4 44,9c3,5 45,14 93,21c49,6 107,16 130,21c23,5 77,9 120,10c43,0 98,7 123,14c63,19 692,13 930,-9zm-3685,-2903c-8,-44 -11,-40 -19,22c-4,34 -3,43 3,30c9,-19 10,-18 12,5l2,25l4,-24c3,-13 2,-39 -2,-58zm474,48c12,-8 9,-11 -12,-17c-16,-3 -31,-4 -34,0c-4,3 2,6 13,7c18,0 18,1 -1,9l-20,9l20,0c11,0 27,-3 34,-8zm-512,-203c-2,-13 -4,-3 -4,22c0,25 2,35 4,23c2,-13 2,-33 0,-45zm6363,8c0,-2 -7,-9 -15,-16c-13,-11 -14,-10 -9,4c5,14 24,23 24,12zm87,-177l2,-71l-20,23c-24,27 -25,68 -1,97c9,12 17,22 17,22c0,0 1,-32 2,-71zm-6407,-29c0,-5 -2,-10 -4,-10c-3,0 -8,5 -11,10c-3,6 -1,10 4,10c6,0 11,-4 11,-10zm6382,-106l-6,-59l-7,60c-4,32 -12,61 -18,63c-7,2 -7,8 2,16c22,25 37,-14 29,-80zm-6385,54c-3,-7 -5,-2 -5,12c0,14 2,19 5,13c2,-7 2,-19 0,-25zm37,-50c-3,-10 -1,-18 5,-18c6,0 11,5 11,12c0,6 2,9 5,7c2,-3 1,-20 -4,-37c-6,-20 -6,-32 0,-32c10,0 12,-53 2,-63c-3,-4 -12,10 -20,30c-15,45 -18,156 -3,133c5,-8 7,-23 4,-32zm116,-52c0,-74 -3,-95 -15,-100c-29,-11 -12,-146 18,-146c17,0 -2,-14 -23,-17c-12,-2 -20,3 -20,12c0,8 -11,38 -25,67c-26,53 -32,75 -15,48c9,-13 10,-13 10,0c0,8 -4,21 -9,29c-5,8 -7,21 -4,28c10,26 23,-8 23,-59c0,-26 5,-50 10,-53c6,-4 10,13 10,44c0,27 5,53 10,56c6,3 10,46 10,96c0,53 4,89 10,89c6,0 10,-38 10,-94zm-83,2c-3,-8 -6,-5 -6,6c-1,11 2,17 5,13c3,-3 4,-12 1,-19zm6283,-52c0,-14 -5,-28 -11,-31c-15,-10 -18,-4 -12,28c7,34 23,36 23,3zm-33,-136c-3,-27 -13,-62 -22,-77c-16,-28 -16,-27 -11,29c4,53 19,98 33,98c3,0 3,-22 0,-50zm-67,-97c-3,-62 3,-72 10,-18l7,50l-2,-59c-1,-42 -6,-62 -19,-71c-9,-7 -18,-22 -19,-33c0,-11 -5,-18 -11,-15c-5,3 -7,-5 -4,-21c3,-14 2,-26 -3,-26c-16,0 -6,105 12,136c11,17 19,45 19,63c0,17 3,31 6,31c3,0 5,-17 4,-37zm-6108,-28c-6,-51 -16,-49 -27,3c-6,30 -5,33 12,30c13,-3 17,-11 15,-33zm15,-67c-3,-8 -6,-5 -6,6c-1,11 2,17 5,13c3,-3 4,-12 1,-19zm5975,-110c-7,-7 -12,-8 -12,-2c0,14 12,26 19,19c2,-3 -1,-11 -7,-17zm33,-18c3,-5 1,-10 -4,-10c-6,0 -11,5 -11,10c0,6 2,10 4,10c3,0 8,-4 11,-10zm-5855,-446c20,-18 27,-29 20,-34c-7,-4 0,-12 19,-19c16,-7 32,-20 36,-29c5,-14 7,-14 15,-2c6,9 10,10 10,3c0,-15 61,-73 78,-73c6,0 12,-10 13,-22c1,-22 1,-22 9,2c5,17 8,19 9,8c1,-10 5,-18 10,-18c5,0 12,-11 15,-25c4,-14 12,-25 20,-25c7,0 23,-9 35,-19c19,-17 51,-35 206,-118c74,-40 104,-53 124,-53c42,0 151,-70 151,-97c0,-3 -20,-23 -45,-45c-25,-22 -43,-43 -40,-47c2,-5 -2,-17 -10,-27c-11,-15 -14,-16 -15,-4c0,12 -2,13 -9,1c-10,-15 -81,-7 -81,9c0,13 -517,13 -522,0c-2,-6 -37,-13 -78,-15c-41,-3 -93,-9 -115,-15c-22,-5 -55,-10 -73,-10c-20,0 -31,-4 -27,-10c3,-5 5,-10 3,-11c-2,0 -23,-3 -48,-6c-25,-3 -47,-9 -50,-13c-3,-4 -31,-10 -62,-14c-32,-4 -58,-12 -58,-17c0,-5 -20,-9 -44,-9c-26,0 -51,-6 -60,-15c-8,-9 -33,-15 -58,-15c-24,0 -48,-4 -54,-10c-16,-16 -225,-15 -235,1c-15,23 -10,59 7,59c9,0 14,6 11,13c-2,6 8,28 23,47c15,19 31,46 35,60l9,25l7,-25c6,-23 7,-22 8,9c1,22 11,45 31,68c16,18 30,38 30,44c0,6 4,7 10,4c5,-3 10,3 10,14c0,12 5,21 10,21c6,0 10,5 10,11c0,7 13,26 30,43c16,17 43,47 60,66c19,22 28,28 24,15c-5,-15 -1,-13 15,8c12,15 29,27 36,27c8,0 17,5 21,12c5,8 0,9 -17,5l-24,-6l24,20c13,10 32,19 42,19c12,0 23,10 29,25c5,14 18,28 27,32c10,3 38,20 63,37c25,17 48,30 53,28c4,-1 7,7 7,17c0,14 10,21 33,26c17,4 38,12 45,17c8,8 12,6 12,-5c0,-8 -6,-18 -12,-20c-9,-4 -8,-6 2,-6c8,-1 20,8 25,20c10,21 23,29 105,67c60,27 73,27 110,-4zm475,-729c22,-7 54,-10 71,-8c31,5 61,-16 36,-25c-7,-2 -12,-8 -12,-13c0,-5 -31,-40 -70,-78c-38,-38 -70,-75 -70,-81c0,-6 -11,-22 -25,-35c-13,-14 -27,-42 -31,-63c-7,-42 -40,-102 -56,-102c-6,0 -8,-7 -4,-15c3,-8 0,-14 -7,-12c-7,1 -13,-13 -15,-36c-2,-20 -7,-35 -11,-33c-4,3 -13,1 -21,-5c-11,-6 -12,-9 -2,-9c7,0 10,-5 7,-10c-4,-6 -11,-8 -16,-5c-5,4 -14,-6 -20,-22c-5,-15 -13,-30 -17,-33c-14,-10 -32,-50 -33,-72c0,-13 -3,-17 -6,-10c-7,17 -23,15 -23,-3c0,-7 -7,-18 -16,-23c-12,-6 -15,-18 -12,-36c3,-14 1,-26 -3,-26c-5,0 -9,-13 -9,-29c0,-25 -3,-29 -22,-25c-13,2 -17,2 -10,-2c6,-3 12,-14 12,-25c0,-16 -7,-19 -50,-19c-35,0 -49,4 -47,13c1,7 -6,11 -18,10c-31,-4 -76,8 -69,18c3,5 -4,9 -15,9c-11,0 -26,7 -35,15c-9,9 -33,15 -61,15c-31,0 -47,5 -51,15c-4,8 -17,15 -30,15c-13,0 -24,4 -24,9c0,5 -14,12 -30,16c-16,4 -30,12 -30,19c0,8 -12,11 -35,8c-25,-3 -36,0 -41,12c-3,9 -17,16 -30,16c-15,0 -24,6 -24,15c0,13 -18,20 -42,16c-5,0 -8,6 -8,14c0,9 -9,15 -25,15c-14,0 -25,3 -25,8c0,4 -23,18 -50,31c-28,13 -61,35 -75,49c-14,13 -25,22 -25,18c0,-3 -9,3 -20,14c-11,11 -20,26 -20,32c0,7 -14,14 -30,15c-17,1 -44,11 -59,23c-16,11 -32,20 -36,20c-3,0 -26,19 -50,43c-36,33 -45,49 -45,75c0,29 3,32 20,27c23,-7 28,10 6,18c-9,4 -12,14 -9,26c6,25 39,27 110,10c34,-9 62,-9 116,0c40,7 115,19 167,28c52,8 100,21 106,29c6,7 35,16 65,20c30,3 59,13 66,22c10,12 15,13 28,2c8,-7 15,-8 15,-3c0,14 62,33 108,33c33,0 40,3 36,15c-5,12 3,15 39,15c27,0 52,6 61,15c18,19 112,21 119,3c3,-10 13,-9 41,5c20,9 48,17 61,17c14,0 25,5 25,10c0,14 253,1 305,-15z"/>
   <path stroke-width="0" id="svg_3" d="m4138,6055c-3,-3 -68,-11 -145,-17c-220,-16 -253,-19 -253,-28c0,-5 -30,-11 -67,-15c-93,-9 -173,-25 -173,-35c0,-4 -15,-10 -32,-13c-78,-14 -97,-20 -92,-28c3,-5 -9,-9 -26,-9c-16,0 -39,-4 -50,-10c-11,-5 -29,-14 -40,-20c-11,-5 -29,-10 -40,-10c-11,0 -20,-7 -20,-15c0,-8 -9,-15 -20,-15c-23,0 -70,-20 -88,-37c-7,-7 -24,-16 -38,-19c-13,-3 -24,-10 -24,-15c0,-5 -12,-9 -26,-9c-14,0 -23,-4 -19,-10c3,-5 0,-10 -8,-10c-19,0 -77,-30 -77,-39c0,-4 -18,-16 -40,-26c-23,-10 -54,-33 -70,-52c-16,-18 -34,-33 -40,-33c-5,0 -10,-4 -10,-10c0,-5 -6,-10 -12,-10c-7,0 -24,-14 -37,-30c-13,-17 -29,-30 -37,-30c-8,0 -14,-4 -14,-9c0,-6 -27,-38 -60,-72c-33,-34 -60,-70 -60,-80c0,-11 -6,-19 -13,-19c-7,0 -23,-18 -36,-40c-12,-22 -25,-40 -29,-40c-4,0 -13,-15 -21,-32c-8,-18 -17,-35 -20,-38c-12,-10 -31,-50 -31,-65c0,-8 -7,-15 -15,-15c-8,0 -15,-8 -15,-19c0,-10 -7,-24 -15,-31c-8,-7 -15,-19 -15,-27c0,-7 -7,-16 -15,-19c-8,-4 -15,-12 -15,-20c0,-8 -4,-14 -10,-14c-5,0 -10,-9 -10,-21c0,-11 -4,-17 -10,-14c-5,3 -10,-1 -10,-10c0,-9 -9,-25 -20,-37c-11,-12 -20,-28 -20,-35c0,-7 -4,-13 -9,-13c-5,0 -11,-10 -15,-23c-3,-12 -14,-32 -25,-44c-28,-29 -61,-90 -61,-110c0,-9 -3,-14 -6,-10c-8,8 -74,-117 -74,-138c0,-9 -7,-18 -15,-21c-8,-4 -15,-15 -15,-25c0,-10 -4,-19 -10,-19c-5,0 -10,-5 -10,-10c0,-6 -9,-30 -20,-52c-11,-23 -20,-52 -20,-64c0,-13 -5,-26 -10,-29c-6,-3 -10,-21 -10,-40c0,-18 -4,-35 -8,-37c-13,-5 -52,-215 -52,-278c0,-30 -7,-100 -15,-155c-17,-115 -19,-319 -4,-385c6,-25 14,-88 19,-140c9,-90 21,-181 36,-277c4,-24 11,-43 15,-43c5,0 9,-10 9,-22c0,-22 21,-89 30,-98c3,-3 12,-25 19,-50c16,-58 34,-100 43,-100c3,0 11,-15 18,-34c6,-19 22,-47 35,-62c14,-16 25,-35 25,-41c0,-7 5,-13 10,-13c6,0 10,-6 10,-13c0,-8 9,-22 20,-32c11,-10 20,-24 20,-32c0,-7 6,-13 14,-13c7,0 19,-13 26,-30c7,-16 16,-27 21,-24c5,3 9,0 9,-6c0,-7 15,-26 33,-43c17,-16 31,-34 30,-39c-2,-4 0,-8 5,-8c4,0 21,-12 37,-26c17,-14 42,-33 58,-42c15,-9 27,-21 28,-27c0,-5 42,-30 93,-55c51,-25 91,-48 89,-52c-2,-5 4,-8 13,-8c22,0 87,-22 94,-32c3,-4 24,-14 45,-22c22,-7 39,-19 38,-25c-2,-6 10,-11 26,-11c17,0 33,-5 36,-10c3,-6 17,-10 30,-10c13,0 27,-4 30,-10c3,-5 17,-10 31,-10c13,0 24,-4 24,-9c0,-8 43,-15 190,-30c41,-4 71,-9 65,-11c-5,-1 8,-6 30,-10c22,-4 66,-15 98,-24c32,-9 71,-16 87,-16c15,0 30,-5 32,-12c4,-11 38,-16 206,-34c35,-4 58,-10 51,-15c-7,-4 17,-10 52,-13c127,-11 174,-17 194,-26c11,-4 121,-16 245,-26c279,-23 1162,-32 1365,-15c276,24 328,30 334,39c3,5 21,12 39,16c81,16 92,19 92,26c0,5 13,11 29,15c16,3 50,19 75,36c26,16 50,29 54,29c4,0 14,9 22,20c8,11 19,20 25,20c13,0 44,29 65,60c8,13 25,32 37,43c12,11 35,39 50,61c15,23 36,48 45,57c10,9 18,21 18,28c0,6 5,11 10,11c6,0 10,9 10,20c0,11 6,20 13,20c6,0 23,24 37,53c14,28 28,54 31,57c3,3 11,21 19,40c8,19 16,37 20,40c10,9 30,61 30,80c0,10 3,20 8,22c4,2 20,37 36,78c16,41 32,77 36,80c4,3 10,19 13,35c9,48 25,101 27,90c1,-5 10,22 20,60c10,39 27,99 38,135c11,36 26,90 32,120c7,30 17,66 24,79c15,33 13,624 -3,629c-6,2 -11,16 -11,30c0,43 -30,177 -41,180c-5,2 -9,20 -9,40c0,35 -14,90 -31,124c-5,10 -9,29 -9,43c0,14 -4,25 -10,25c-5,0 -10,11 -10,25c0,14 -4,25 -10,25c-5,0 -10,14 -10,30c0,17 -3,30 -8,30c-4,0 -13,18 -19,40c-11,34 -30,77 -77,180c-6,14 -13,27 -16,30c-12,12 -30,51 -30,64c0,8 -3,16 -7,18c-11,4 -53,87 -53,104c0,8 -7,14 -15,14c-8,0 -15,9 -15,20c0,11 -4,20 -10,20c-5,0 -10,9 -10,20c0,11 -4,20 -10,20c-5,0 -10,7 -10,15c0,8 -4,15 -10,15c-5,0 -10,7 -10,16c0,9 -8,24 -18,33c-9,9 -24,30 -32,46c-8,17 -23,39 -34,51c-10,12 -18,24 -17,28c2,7 -10,22 -46,61c-13,13 -23,29 -23,35c0,6 -4,8 -10,5c-5,-3 -10,0 -10,8c0,8 -10,25 -22,39c-13,13 -34,41 -48,61c-14,20 -28,37 -32,37c-5,0 -8,6 -8,13c0,6 -18,30 -40,51c-22,22 -40,44 -40,50c0,11 -220,226 -232,226c-4,0 -30,16 -57,35c-26,19 -53,35 -60,35c-6,0 -11,5 -11,10c0,6 -6,10 -14,10c-7,0 -19,7 -26,15c-7,8 -16,12 -21,9c-5,-3 -9,0 -9,5c0,6 -12,11 -26,11c-14,0 -23,4 -20,9c3,4 -13,14 -35,21c-22,8 -43,18 -47,24c-14,21 -63,38 -149,53c-18,3 -33,9 -33,14c0,5 -11,9 -24,9c-14,0 -28,5 -31,10c-3,6 -21,10 -39,10c-17,0 -37,5 -43,11c-5,5 -52,16 -103,24c-51,8 -96,18 -99,23c-7,12 -80,20 -286,32c-259,15 -509,22 -517,15zm648,-518c28,-1 58,-8 66,-15c11,-9 55,-12 152,-11c134,1 151,-1 151,-23c0,-6 19,-18 43,-25c34,-12 42,-19 42,-39c0,-14 4,-23 9,-20c5,4 11,3 13,-2c1,-4 22,-22 46,-41c24,-18 41,-35 40,-37c-6,-5 -152,-34 -175,-34c-13,0 -23,-4 -23,-9c0,-8 -11,-11 -102,-27c-21,-3 -38,-9 -38,-13c0,-4 -16,-13 -35,-20c-19,-7 -41,-18 -48,-24c-18,-17 -55,-37 -68,-37c-14,0 -39,-25 -39,-39c0,-6 -5,-11 -10,-11c-6,0 -16,-11 -22,-25c-6,-14 -17,-25 -24,-25c-7,0 -19,-10 -25,-22c-7,-13 -20,-30 -30,-39c-10,-9 -16,-18 -14,-21c3,-3 -1,-11 -10,-18c-8,-7 -15,-19 -15,-27c0,-8 -4,-11 -10,-8c-5,3 -10,-2 -10,-12c0,-10 -9,-29 -19,-42l-18,-23l-16,41c-9,22 -22,41 -29,41c-6,0 -8,3 -5,7c8,7 -36,87 -65,117c-10,11 -18,24 -18,29c0,5 -8,17 -17,26c-10,9 -34,36 -53,61c-34,45 -74,82 -85,80c-3,-1 -19,13 -35,30c-15,16 -35,30 -44,30c-9,0 -16,5 -16,10c0,6 -9,10 -19,10c-10,0 -21,7 -25,15c-3,8 -16,15 -29,15c-31,0 -69,36 -65,63c3,19 55,54 104,70c11,4 37,14 59,23c78,32 113,34 531,21zm-721,-371c11,-4 32,-12 47,-18c15,-6 25,-14 22,-19c-3,-5 -1,-9 5,-9c13,0 101,-87 101,-100c0,-6 7,-10 15,-10c13,0 17,-6 14,-26c0,-3 8,-13 18,-22c10,-9 24,-29 32,-44c8,-16 18,-28 23,-28c4,0 8,-7 8,-15c0,-8 4,-15 10,-15c5,0 17,-15 25,-32c9,-18 26,-51 38,-74c12,-22 30,-60 40,-85c10,-24 22,-52 28,-61c5,-10 9,-34 9,-53c0,-19 5,-35 10,-35c6,0 10,-62 10,-165c0,-103 -4,-165 -10,-165c-5,0 -10,-20 -10,-44c0,-25 -4,-48 -10,-51c-5,-3 -10,-15 -10,-26c0,-10 -3,-19 -8,-19c-4,0 -13,-14 -21,-31c-8,-18 -33,-52 -57,-77c-24,-25 -44,-49 -44,-54c0,-4 -4,-8 -10,-8c-5,0 -22,-13 -37,-30c-14,-16 -33,-30 -42,-30c-9,0 -25,-11 -35,-25c-10,-14 -24,-25 -30,-25c-7,0 -28,-12 -47,-26c-19,-14 -50,-33 -69,-42c-19,-9 -37,-19 -40,-22c-11,-12 -62,-30 -86,-30c-14,0 -23,-4 -20,-9c22,-34 -417,-41 -469,-7c-13,9 -33,16 -44,16c-11,0 -23,5 -26,10c-3,6 -19,10 -36,10c-16,0 -29,5 -29,10c0,6 -9,10 -19,10c-11,0 -23,5 -26,10c-3,6 -15,10 -26,10c-10,0 -19,5 -19,10c0,6 -9,10 -20,10c-11,0 -20,4 -20,8c0,5 -18,17 -40,27c-42,19 -130,99 -130,119c0,6 20,29 45,51c25,22 45,45 45,53c0,7 15,19 34,27c18,8 36,21 39,30c4,9 19,15 36,15c22,0 35,8 47,25c11,17 25,25 45,25c23,0 31,7 44,35c9,24 25,40 48,50c19,8 37,23 40,35c7,29 24,25 42,-10c24,-46 45,-37 60,24c9,35 15,40 55,52c88,27 164,12 185,-34c5,-12 13,-22 17,-22c5,0 8,-7 8,-16c0,-18 24,-44 41,-44c6,0 19,-8 28,-17c25,-28 58,-43 91,-43c18,0 29,-4 25,-10c-11,-18 152,-17 169,1c6,5 18,9 28,9c23,0 54,17 93,52c16,16 36,28 43,28c7,0 11,4 7,9c-3,5 3,17 12,27c44,43 63,105 63,205c0,52 -4,99 -8,105c-5,5 -17,30 -26,57c-10,26 -22,45 -27,41c-5,-3 -9,2 -9,10c0,9 -16,26 -35,38c-19,13 -35,28 -35,33c0,6 -21,17 -47,24c-27,8 -50,18 -53,22c-3,4 -46,9 -95,11c-90,3 -90,3 -87,28c2,14 8,30 13,36c6,8 -2,17 -26,28c-25,12 -35,23 -35,40c0,13 -7,29 -15,36c-20,17 -19,33 5,55c11,10 20,28 20,39c1,25 22,106 32,121c7,12 43,12 73,1zm1446,-97c16,-17 29,-35 29,-40c0,-5 5,-8 12,-6c6,1 16,-7 22,-18c6,-11 23,-41 37,-65c14,-25 29,-57 33,-72c3,-16 13,-28 20,-28c9,0 12,-7 9,-20c-3,-13 -14,-20 -29,-20c-13,0 -24,-4 -24,-10c0,-5 -7,-10 -15,-10c-8,0 -15,-4 -15,-9c0,-5 -9,-12 -19,-16c-28,-9 -111,-91 -111,-110c0,-9 -4,-14 -9,-11c-10,6 -20,-19 -32,-79c-4,-22 -11,-55 -15,-73c-8,-42 29,-192 48,-192c4,0 8,-6 8,-13c0,-19 76,-97 94,-97c9,0 16,-4 16,-10c0,-5 9,-10 20,-10c11,0 20,-4 20,-10c0,-5 11,-10 24,-10c14,0 28,-4 31,-10c3,-5 44,-10 90,-10c46,0 87,5 90,10c3,6 15,10 26,10c10,0 19,5 19,10c0,6 7,10 15,10c8,0 15,5 15,10c0,6 9,10 21,10c11,0 17,5 14,10c-3,6 -2,10 4,10c13,0 61,48 61,60c0,6 4,10 9,10c8,0 18,23 27,63c5,20 44,66 44,51c0,-5 5,-1 11,9c14,24 27,21 31,-8c2,-14 7,-25 12,-25c5,1 14,-9 20,-21c11,-22 53,-53 89,-65c9,-4 17,-12 17,-19c0,-8 9,-16 19,-20c36,-11 41,-28 25,-82c-8,-28 -22,-57 -30,-63c-7,-7 -14,-21 -14,-32c0,-10 -15,-34 -33,-52c-18,-18 -41,-49 -51,-69c-9,-21 -21,-37 -26,-37c-6,0 -10,-6 -10,-14c0,-7 -13,-27 -30,-44c-16,-18 -30,-36 -30,-42c0,-6 -21,-30 -46,-54c-71,-67 -83,-76 -99,-76c-8,0 -15,-3 -15,-8c0,-12 -95,-52 -123,-52c-14,0 -33,-7 -42,-16c-14,-14 -43,-17 -206,-16c-104,1 -197,5 -207,11c-9,5 -53,14 -97,21c-44,7 -90,19 -102,26c-12,8 -36,14 -52,14c-16,0 -33,5 -36,10c-3,6 -17,10 -31,10c-14,0 -22,4 -19,10c4,6 -6,10 -24,10c-16,0 -33,5 -36,10c-3,6 -14,10 -23,10c-9,0 -33,14 -52,30c-19,17 -42,32 -51,35c-16,5 -59,77 -59,99c0,7 -7,26 -15,43c-49,98 -74,447 -40,559c8,27 15,62 15,78c0,40 21,106 31,100c5,-3 9,4 9,16c0,11 4,28 9,38c5,9 14,29 20,45c23,57 35,77 70,120c20,24 45,56 56,70c11,15 25,27 32,27c7,0 13,5 13,10c0,6 7,10 15,10c8,0 15,5 15,10c0,6 6,10 14,10c8,0 21,6 28,13c29,27 59,36 176,53c23,4 45,11 48,15c3,5 50,9 106,9c99,0 100,0 129,-31zm-1776,-729c4,-6 -10,-9 -37,-9l-43,2l35,7c19,4 36,8 37,9c1,0 5,-3 8,-9zm2819,-365c9,-14 21,-23 26,-20c6,4 10,-2 10,-11c0,-10 4,-31 9,-48c27,-90 41,-180 41,-253l0,-83l-35,0c-19,0 -35,5 -35,10c0,6 -35,10 -85,10c-50,0 -85,-4 -85,-10c0,-5 -9,-10 -19,-10c-11,0 -23,-5 -27,-11c-3,-6 -22,-18 -41,-26c-19,-8 -37,-23 -40,-33c-3,-11 -9,-17 -14,-14c-5,2 -14,-4 -21,-16c-7,-11 -16,-20 -20,-20c-13,0 -56,-49 -79,-90c-12,-22 -26,-40 -31,-40c-4,0 -8,-7 -8,-15c0,-15 -19,-55 -31,-65c-22,-18 -39,-374 -20,-393c6,-6 11,-22 11,-35c0,-13 4,-20 10,-17c6,3 10,-3 10,-14c0,-11 5,-23 10,-26c6,-3 10,-13 10,-22c0,-34 166,-214 225,-243c45,-23 43,-53 -9,-135c-25,-38 -50,-75 -56,-82c-5,-7 -10,-17 -10,-23c0,-5 -4,-10 -10,-10c-5,0 -10,-7 -10,-15c0,-8 -6,-15 -14,-15c-8,0 -17,-9 -21,-19c-3,-11 -26,-38 -50,-60c-25,-23 -45,-46 -45,-51c0,-5 -11,-12 -25,-16c-14,-3 -25,-10 -25,-14c0,-4 -15,-15 -32,-24c-18,-9 -40,-21 -48,-26c-8,-4 -53,-18 -100,-31c-47,-12 -94,-25 -105,-30c-41,-16 -236,-22 -780,-21c-564,0 -829,7 -806,21c11,7 -243,38 -399,48c-36,3 -70,9 -76,14c-6,5 -45,14 -85,20c-127,18 -139,21 -139,30c0,5 -18,9 -39,9c-22,0 -43,5 -46,10c-3,6 -26,10 -51,10c-24,0 -44,4 -44,9c0,4 -21,12 -47,15c-85,13 -157,25 -205,34c-27,5 -48,7 -48,5c0,-2 -10,3 -22,11c-12,9 -32,16 -45,16c-27,0 -73,20 -73,32c0,4 -9,8 -20,8c-11,0 -20,5 -20,10c0,6 -9,10 -19,10c-11,0 -23,5 -26,10c-3,6 -22,10 -42,10c-20,0 -33,3 -30,7c8,7 -38,33 -59,33c-8,0 -17,7 -20,15c-4,8 -10,12 -15,9c-5,-3 -9,4 -9,14c0,11 8,22 18,26c27,9 51,27 105,79c49,47 117,134 117,149c0,4 13,37 30,73c16,36 30,72 30,79c0,7 7,31 16,52c14,32 16,62 11,169c-3,78 -10,131 -16,133c-6,2 -11,19 -11,37c0,19 -4,37 -10,40c-5,3 -10,14 -10,24c0,40 -65,143 -127,201c-35,33 -67,60 -72,60c-5,0 -11,3 -13,8c-6,14 -134,72 -160,72c-14,0 -28,5 -30,10c-2,7 -46,12 -108,13c-106,1 -146,-7 -119,-24c11,-7 10,-9 -3,-9c-27,0 -48,11 -48,26c0,8 -8,14 -19,14c-16,0 -17,5 -10,50c8,50 30,95 42,84c3,-3 12,3 19,15c7,12 21,21 31,21c10,0 16,4 13,9c-16,25 230,44 260,20c6,-5 44,-12 85,-15c55,-5 86,-2 122,10c26,9 49,16 51,16c3,0 21,-16 40,-35c20,-19 43,-35 52,-35c8,0 12,-4 9,-10c-3,-5 -1,-10 6,-10c6,0 19,-8 28,-19c9,-10 31,-26 49,-35c17,-9 32,-21 32,-26c0,-6 9,-10 20,-10c11,0 20,-4 20,-10c0,-5 6,-10 13,-10c18,0 67,-24 67,-32c0,-5 9,-8 20,-8c19,0 59,-18 70,-31c9,-11 138,-49 165,-49c15,0 36,-6 48,-12c12,-7 64,-15 114,-18c51,-3 98,-11 103,-16c8,-8 4,-22 -14,-49c-14,-21 -26,-42 -26,-46c0,-5 -7,-9 -15,-9c-8,0 -15,-5 -15,-11c0,-6 -7,-17 -15,-25c-8,-9 -15,-24 -15,-34c0,-10 -4,-21 -9,-25c-14,-8 -41,-65 -41,-86c0,-9 -4,-19 -10,-21c-29,-10 -34,-202 -6,-231c7,-7 19,-27 27,-44c7,-18 17,-33 21,-33c5,0 8,-5 8,-11c0,-11 45,-55 108,-107c19,-15 46,-38 60,-52c15,-14 41,-32 57,-40c17,-8 39,-23 49,-32c11,-10 25,-18 32,-18c7,0 14,-4 16,-8c4,-11 98,-62 114,-62c8,0 14,-4 14,-10c0,-5 13,-10 29,-10c17,0 33,-4 36,-10c3,-6 22,-10 41,-10c19,0 34,-4 34,-10c0,-5 11,-10 25,-10c14,0 25,-4 25,-9c0,-5 10,-11 23,-14c12,-3 47,-14 77,-25c30,-11 88,-25 128,-32c39,-6 70,-16 66,-21c-6,-11 469,-12 480,-1c4,4 62,14 129,23c139,19 170,30 248,90c90,68 184,161 205,202c8,15 19,27 24,27c6,0 10,6 10,13c0,6 14,28 30,47c16,19 30,41 30,48c0,6 4,12 8,12c8,0 43,78 57,128c4,12 11,20 16,17c5,-4 9,35 9,94c0,60 -4,101 -10,101c-5,0 -16,16 -24,35c-18,42 -107,135 -130,135c-9,0 -16,7 -16,15c0,8 -7,15 -15,15c-8,0 -15,5 -15,10c0,6 -6,10 -14,10c-11,0 -32,27 -23,31c1,0 47,5 102,10c113,10 215,25 200,29c-10,3 52,17 117,27c21,3 42,11 49,19c6,8 19,14 29,14c24,0 102,45 93,53c-3,4 3,7 15,7c12,0 22,5 22,10c0,6 5,10 11,10c6,0 16,6 23,13c7,6 25,21 39,32c15,11 27,25 27,32c0,7 5,13 11,13c12,0 69,60 69,72c0,4 6,13 13,20c7,7 26,31 42,53c17,22 33,42 36,45c3,3 12,20 20,38c8,17 17,32 21,32c5,0 8,6 8,13c0,23 31,80 59,109c29,30 47,26 75,-17zm-1967,-189c22,-49 18,-56 -35,-56c-27,0 -51,3 -55,6c-9,10 4,34 19,34c8,0 14,5 14,10c0,15 23,38 35,37c5,-1 15,-15 22,-31zm248,-276c3,-5 16,-10 29,-10c12,0 40,-8 62,-19c21,-10 57,-25 79,-32c22,-8 44,-20 48,-26c4,-7 13,-13 20,-13c7,0 25,-11 41,-25c16,-14 33,-25 38,-25c4,0 8,-7 8,-15c0,-8 5,-15 10,-15c6,0 10,-7 10,-16c0,-8 4,-13 8,-10c5,3 15,-6 22,-19c7,-14 16,-25 20,-25c3,0 32,-25 64,-55c31,-30 61,-55 65,-55c4,0 24,-16 44,-35c20,-19 42,-35 47,-35c6,0 10,-7 10,-15c0,-9 -9,-15 -24,-15c-14,0 -28,-4 -31,-10c-3,-5 -28,-10 -55,-10c-27,0 -52,-4 -55,-10c-3,-5 -44,-10 -89,-10c-46,0 -107,-5 -136,-10c-30,-6 -166,-11 -304,-11c-138,-1 -240,-5 -226,-9c21,-7 18,-8 -17,-9c-24,-1 -43,4 -43,9c0,6 -49,10 -127,10c-136,0 -333,19 -333,32c0,4 -16,8 -35,8c-19,0 -35,5 -35,10c0,6 -8,10 -17,10c-10,0 -29,9 -43,20c-14,11 -34,20 -45,20c-11,0 -35,13 -54,29c-30,24 -32,30 -22,49c6,12 16,22 21,22c6,0 10,7 10,15c0,8 5,15 11,15c5,0 8,4 5,8c-3,5 10,25 29,45c19,21 35,41 35,45c0,13 30,43 68,70c51,36 163,92 183,92c11,0 19,5 19,10c0,6 17,10 38,10c20,0 44,5 52,10c21,13 587,13 595,0zm-1108,-596c-3,-3 -12,-4 -19,-1c-8,3 -5,6 6,6c11,1 17,-2 13,-5zm33,-24c0,-5 6,-10 14,-10c8,0 31,-8 53,-19c52,-25 104,-41 136,-41c14,0 30,-6 34,-14c9,-15 62,-23 218,-32c66,-4 93,-9 80,-15c-11,-4 111,-8 270,-8c160,0 281,4 270,8c-12,5 36,11 120,15c115,5 341,21 353,25c2,1 0,6 -3,11c-4,6 17,10 54,10c63,0 78,-13 46,-40c-8,-7 -12,-17 -8,-23c3,-6 1,-7 -5,-3c-7,4 -17,-3 -24,-18c-6,-14 -15,-26 -19,-26c-4,0 -17,-16 -29,-35c-12,-19 -25,-35 -30,-35c-4,0 -22,-13 -40,-30c-18,-16 -41,-30 -51,-30c-10,0 -24,-9 -31,-20c-7,-11 -23,-20 -35,-20c-13,0 -23,-4 -23,-10c0,-6 -30,-10 -71,-10c-38,0 -68,-4 -65,-9c13,-21 -368,-30 -454,-10c-25,6 -60,13 -78,16c-18,3 -35,9 -38,14c-3,5 -18,9 -35,9c-16,0 -29,4 -29,8c0,4 -21,13 -47,20c-27,8 -56,18 -65,23c-10,5 -27,9 -37,9c-11,0 -22,4 -25,9c-3,5 -28,14 -55,21c-28,6 -55,18 -62,26c-6,8 -20,14 -30,14c-19,0 -83,32 -104,53c-6,7 -35,28 -63,47c-29,19 -52,40 -52,47c0,6 -9,15 -20,18c-11,3 -20,11 -20,16c0,5 -6,9 -13,9c-7,0 -18,9 -25,20c-11,18 -10,20 13,20c14,0 25,-4 25,-10z"/>
   <path stroke-width="0" id="svg_4" d="m1482,3150c0,-14 2,-19 5,-12c2,6 2,18 0,25c-3,6 -5,1 -5,-13z"/>
   <path stroke-width="0" id="svg_5" d="m1450,2751c0,-5 -3,-16 -6,-25c-4,-11 -1,-16 10,-16c10,0 16,9 16,25c0,14 -4,25 -10,25c-5,0 -10,-4 -10,-9z"/>
   <path stroke-width="0" id="svg_6" d="m1367,2633c-4,-3 -7,-19 -7,-35c0,-40 24,-31 28,10c3,30 -6,41 -21,25z"/>
   <path stroke-width="0" id="svg_7" d="m1288,2483c7,-3 16,-2 19,1c4,3 -2,6 -13,5c-11,0 -14,-3 -6,-6z"/>
   <path stroke-width="0" id="svg_8" d="m6871,2444c0,-11 3,-14 6,-6c3,7 2,16 -1,19c-3,4 -6,-2 -5,-13z"/>
   <path stroke-width="0" id="svg_9" d="m2878,1423c7,-3 16,-2 19,1c4,3 -2,6 -13,5c-11,0 -14,-3 -6,-6z"/>
   <path stroke-width="0" id="svg_10" d="m900,1129c0,-5 5,-7 10,-4c6,3 10,8 10,11c0,2 -4,4 -10,4c-5,0 -10,-5 -10,-11z"/>
   <path stroke-width="0" id="svg_11" d="m52,1830c0,-14 2,-19 5,-12c2,6 2,18 0,25c-3,6 -5,1 -5,-13z"/>
  </g>
 </g>
</svg>